<?xml version="1.0" encoding="UTF-8" standalone="no"?><!DOCTYPE svg PUBLIC "-//W3C//DTD SVG 1.1//EN" "http://www.w3.org/Graphics/SVG/1.1/DTD/svg11.dtd"><svg width="100%" height="100%" viewBox="0 0 60 60" version="1.1" xmlns="http://www.w3.org/2000/svg" xmlns:xlink="http://www.w3.org/1999/xlink" xml:space="preserve" xmlns:serif="http://www.serif.com/" style="fill-rule:evenodd;clip-rule:evenodd;stroke-linecap:round;stroke-linejoin:round;stroke-miterlimit:1.5;"><g><path d="M0.37,32.198c1.271,-11.886 6.79,-21.467 17.503,-28.227c0.924,4.763 10.64,3.603 23.979,-0c3.435,3.321 6.345,4.941 8.701,4.755c5.969,14.629 8.029,18.9 8.6,19.223c-0.315,2.912 -0.461,5.654 -0.506,8.296c-7.516,19.02 -14.391,18.142 -21.348,19.831c-0.72,-0.562 -1.876,-0.687 -3.946,0.101c-8.543,2.366 -13.648,1.444 -15.985,-2.125c-5.772,-1.385 -9.135,-4.146 -11.13,-7.689l-2.225,-5.261l-3.643,-8.904Zm30.859,4.571c5.584,-4.218 7.147,-8.597 4.3,-13.152c-2.046,0.288 -3.477,1.651 -4.174,4.3c0.13,-3.747 -1.225,-4.896 -3.794,-3.921c-3.697,1.374 -2.415,5.667 3.668,12.773Z" style="fill:#853a16;stroke:#8d370d;stroke-width:0.55px;"/><path d="M17.317,6.14c4.975,3.691 13.574,3.627 26.103,-0.506c1.086,1.583 3.232,2.768 6.476,3.541c2.363,9.594 5.424,14.772 8.599,19.223c-0.031,1.341 -0.102,2.871 -0.404,5.565c-3.541,15.21 -12.849,21.449 -26.103,21.55c-6.566,2.829 -11.714,1.69 -15.581,-3.035c-4.695,-0.507 -8.323,-2.933 -10.32,-8.296l-0.607,-2.429c-6.272,-11.057 -2.222,-22.937 11.837,-35.613Zm13.406,30.377c5.584,-4.219 7.147,-8.598 4.3,-13.153c-2.045,0.288 -3.477,1.651 -4.174,4.3c0.13,-3.746 -1.225,-4.896 -3.794,-3.921c-3.697,1.374 -2.415,5.667 3.668,12.774Z" style="fill:#d6ae82;stroke:#d6ae82;stroke-width:0.55px;"/><g><path d="M18.297,14.258c1.59,4.674 3.554,8.226 5.818,10.876" style="fill:#853a16;stroke:#853a16;stroke-width:0.04px;"/><path d="M25,11.982c0.717,2.823 1.77,4.638 3.162,5.438" style="fill:none;stroke:#853a16;stroke-width:0.39px;"/><path d="M30.312,11.729l-0.506,1.391" style="fill:none;stroke:#853a16;stroke-width:0.39px;"/><path d="M35.877,22.605c2.829,-2.982 4.506,-5.196 5.311,-6.829" style="fill:none;stroke:#853a16;stroke-width:0.39px;"/><path d="M45.741,19.57l-2.529,4.553c3.546,0.394 6.065,-2.124 7.588,-7.462" style="fill:none;stroke:#853a16;stroke-width:0.39px;"/><path d="M35.244,33.987c4.844,0.663 8.969,0.299 12.521,-0.885" style="fill:none;stroke:#853a16;stroke-width:0.39px;"/><path d="M38.153,39.046l4.679,0.885" style="fill:none;stroke:#853a16;stroke-width:0.39px;"/><path d="M42.453,48.025c-0.952,1.587 -2.379,2.461 -4.679,2.024" style="fill:none;stroke:#853a16;stroke-width:0.04px;"/><g><path d="M35.371,42.713c-2.021,-1.192 -2.754,-3.351 -3.415,-5.564" style="fill:none;stroke:#853a16;stroke-width:0.31px;"/><path d="M20.7,42.334c2.804,-1.564 5.208,-3.367 6.324,-5.944" style="fill:none;stroke:#853a16;stroke-width:0.39px;"/><path d="M29.553,39.552l0.632,-2.403" style="fill:none;stroke:#853a16;stroke-width:0.31px;"/><path d="M25.759,32.09l-6.956,-0.759" style="fill:none;stroke:#853a16;stroke-width:0.31px;"/></g></g><ellipse cx="31.024" cy="29.567" rx="14.86" ry="13.659" style="fill:#a44b18;fill-opacity:0.38;stroke:#a45927;stroke-opacity:0.28;stroke-width:0.11px;"/></g><path d="M21.767,52.978c-0.172,0.04 -0.335,0.022 -0.491,-0.055c-0.156,-0.078 -0.258,-0.219 -0.306,-0.424c-0.048,-0.205 -0.036,-0.625 0.036,-1.262c-1.34,0.023 -2.31,-0.136 -2.911,-0.48c-0.351,-0.198 -0.569,-0.477 -0.654,-0.837c-0.056,-0.238 -0.039,-0.477 0.05,-0.718c0.09,-0.24 0.233,-0.439 0.429,-0.596c0.202,0.706 0.589,1.206 1.161,1.498c0.571,0.291 1.247,0.427 2.025,0.407c0.065,-0.395 0.143,-0.943 0.235,-1.642c0.116,-0.899 0.176,-1.562 0.18,-1.99c0.214,-0.132 0.416,-0.221 0.604,-0.265c0.288,-0.068 0.536,-0.02 0.745,0.144c0.208,0.165 0.4,0.422 0.576,0.772c0.054,0.104 0.168,0.335 0.343,0.691c0.175,0.356 0.317,0.644 0.428,0.864c0.342,0.685 0.631,1.21 0.867,1.576c0.235,0.365 0.536,0.63 0.902,0.795c-0.027,0.182 -0.105,0.341 -0.234,0.477c-0.129,0.135 -0.282,0.224 -0.459,0.266c-0.404,0.095 -0.772,-0.14 -1.104,-0.704c-0.156,-0.262 -0.301,-0.52 -0.437,-0.774c-0.178,0.112 -0.42,0.204 -0.725,0.276c-0.304,0.071 -0.656,0.131 -1.054,0.178c-0.017,0.647 0.02,1.162 0.11,1.544c0.017,0.072 0.032,0.124 0.046,0.156c-0.07,0.028 -0.19,0.062 -0.362,0.103Zm0.526,-5.43c-0.148,1.181 -0.247,2.139 -0.295,2.876c0.231,-0.037 0.464,-0.083 0.699,-0.139c0.236,-0.055 0.475,-0.138 0.718,-0.248c-0.103,-0.215 -0.477,-1.045 -1.122,-2.489Z" style="fill:#c33748;fill-rule:nonzero;"/><path d="M27.228,45.418c0.214,-0.133 0.416,-0.221 0.604,-0.266c0.288,-0.068 0.536,-0.019 0.745,0.145c0.208,0.164 0.4,0.421 0.576,0.772c0.054,0.104 0.168,0.334 0.343,0.69c0.175,0.357 0.317,0.645 0.427,0.864c0.343,0.685 0.632,1.211 0.868,1.576c0.235,0.366 0.536,0.631 0.902,0.796c-0.027,0.182 -0.105,0.34 -0.234,0.476c-0.129,0.136 -0.282,0.224 -0.459,0.266c-0.404,0.096 -0.772,-0.139 -1.104,-0.704c-0.156,-0.262 -0.301,-0.52 -0.437,-0.774c-0.179,0.112 -0.41,0.202 -0.695,0.269c-0.286,0.068 -0.643,0.12 -1.073,0.157c-0.014,0.711 0.019,1.235 0.099,1.573c0.017,0.072 0.032,0.124 0.046,0.156c-0.07,0.028 -0.19,0.062 -0.362,0.102c-0.172,0.041 -0.335,0.023 -0.491,-0.055c-0.156,-0.077 -0.257,-0.215 -0.304,-0.415c-0.065,-0.277 0.009,-1.151 0.223,-2.622c0.215,-1.472 0.323,-2.474 0.326,-3.006Zm0.489,3.524c0.229,-0.025 0.457,-0.064 0.687,-0.118c0.23,-0.055 0.469,-0.137 0.718,-0.249c-0.103,-0.215 -0.478,-1.045 -1.122,-2.489c-0.133,0.973 -0.227,1.925 -0.283,2.856Z" style="fill:#c33748;fill-rule:nonzero;"/><path d="M33.461,43.772c0.482,-0.114 0.937,-0.072 1.363,0.125c0.427,0.198 0.693,0.521 0.799,0.97c0.056,0.238 0.036,0.45 -0.06,0.637c-0.097,0.186 -0.242,0.302 -0.436,0.348c-0.193,0.046 -0.354,0.057 -0.482,0.035c-0.005,-0.093 -0.019,-0.189 -0.042,-0.288c-0.088,-0.348 -0.241,-0.612 -0.459,-0.791c-0.217,-0.18 -0.486,-0.232 -0.804,-0.157c-0.318,0.075 -0.589,0.247 -0.812,0.516c-0.106,0.271 -0.159,0.605 -0.159,1.002c0.001,0.398 0.044,0.779 0.13,1.145c0.144,0.609 0.382,1.092 0.715,1.449c0.333,0.358 0.748,0.477 1.247,0.36c0.459,-0.109 0.728,-0.356 0.807,-0.743c0.077,-0.34 0.057,-0.762 -0.062,-1.266c0.282,-0.067 0.53,-0.071 0.742,-0.013c0.213,0.058 0.346,0.203 0.401,0.436c0.128,0.543 -0.004,1.049 -0.396,1.519c-0.392,0.469 -0.887,0.775 -1.485,0.916c-0.781,0.184 -1.435,0.065 -1.961,-0.358c-0.527,-0.422 -0.894,-1.076 -1.103,-1.963c-0.21,-0.886 -0.135,-1.703 0.224,-2.451c0.358,-0.748 0.969,-1.224 1.833,-1.428Z" style="fill:#c33748;fill-rule:nonzero;"/><path d="M40.415,44.92l0.349,1.848c0.115,0.487 0.311,0.961 0.589,1.422c-0.156,0.106 -0.322,0.181 -0.5,0.223c-0.481,0.113 -0.782,-0.085 -0.903,-0.594c-0.089,-0.377 -0.16,-0.828 -0.214,-1.353c-0.053,-0.525 -0.094,-0.846 -0.121,-0.962c-0.068,-0.288 -0.232,-0.402 -0.493,-0.34c-0.277,0.065 -0.523,0.397 -0.739,0.994c-0.215,0.598 -0.307,1.077 -0.274,1.438c0.048,0.158 0.201,0.557 0.458,1.198c-0.156,0.107 -0.337,0.185 -0.542,0.233c-0.426,0.101 -0.688,-0.057 -0.786,-0.472c-0.047,-0.199 -0.109,-0.598 -0.186,-1.197c-0.077,-0.599 -0.158,-1.075 -0.241,-1.43c-0.279,-1.18 -0.575,-2.139 -0.89,-2.877c0.162,-0.108 0.337,-0.185 0.525,-0.229c0.189,-0.045 0.36,-0.019 0.514,0.076c0.154,0.095 0.256,0.251 0.307,0.467c0.051,0.216 0.127,0.669 0.229,1.358c0.101,0.689 0.196,1.222 0.285,1.599c0.097,-0.456 0.292,-0.898 0.586,-1.327c0.293,-0.428 0.626,-0.687 0.997,-0.774c0.559,-0.132 0.909,0.101 1.05,0.699Z" style="fill:#c33748;fill-rule:nonzero;"/><path d="M41.272,43.903c0.165,-0.092 0.338,-0.159 0.518,-0.202c0.18,-0.042 0.347,-0.023 0.5,0.058c0.154,0.08 0.251,0.208 0.292,0.383c0.041,0.174 0.083,0.483 0.127,0.926c0.043,0.443 0.092,0.783 0.149,1.021c0.146,0.621 0.33,1.141 0.552,1.563c-0.156,0.107 -0.333,0.184 -0.533,0.231c-0.199,0.047 -0.368,0.038 -0.506,-0.026c-0.138,-0.064 -0.227,-0.183 -0.268,-0.357c-0.041,-0.175 -0.076,-0.469 -0.103,-0.884c-0.028,-0.414 -0.073,-0.752 -0.134,-1.012c-0.163,-0.692 -0.361,-1.259 -0.594,-1.701Zm-0.335,-1.904c0.173,-0.134 0.353,-0.223 0.542,-0.268c0.188,-0.044 0.339,-0.029 0.453,0.047c0.115,0.075 0.194,0.207 0.238,0.395c0.045,0.189 0.022,0.369 -0.069,0.543c-0.091,0.173 -0.236,0.283 -0.435,0.33c-0.41,0.097 -0.665,-0.068 -0.766,-0.494c-0.044,-0.189 -0.032,-0.373 0.037,-0.553Z" style="fill:#c33748;fill-rule:nonzero;"/><path d="M45.211,46.473c0.246,0.029 0.519,0.009 0.818,-0.062c0.299,-0.07 0.549,-0.191 0.748,-0.361c0.162,-0.529 0.166,-1.119 0.013,-1.77c-0.154,-0.651 -0.344,-0.949 -0.571,-0.896c-0.283,0.067 -0.533,0.427 -0.75,1.081c-0.217,0.653 -0.303,1.322 -0.258,2.008Zm-0.402,-1.704c0.314,-1.296 0.828,-2.028 1.543,-2.196c0.376,-0.089 0.683,0.001 0.919,0.27c0.235,0.268 0.409,0.638 0.52,1.109c0.159,0.676 0.105,1.338 -0.163,1.985c-0.268,0.648 -0.704,1.044 -1.308,1.186c-0.343,0.081 -0.669,0.099 -0.978,0.055c0.19,0.757 0.401,1.441 0.633,2.052c-0.161,0.109 -0.336,0.185 -0.524,0.229c-0.189,0.045 -0.359,0.019 -0.51,-0.077c-0.151,-0.096 -0.257,-0.271 -0.317,-0.526c-0.06,-0.255 -0.129,-0.697 -0.208,-1.328c-0.078,-0.63 -0.159,-1.12 -0.241,-1.469c-0.272,-1.152 -0.543,-2.026 -0.812,-2.624c0.161,-0.108 0.341,-0.185 0.537,-0.231c0.197,-0.047 0.362,-0.026 0.497,0.062c0.135,0.088 0.231,0.253 0.288,0.494c0.057,0.24 0.098,0.577 0.124,1.009Z" style="fill:#c33748;fill-rule:nonzero;"/><path d="M49.858,44.389c0.002,0.081 0.009,0.147 0.021,0.197c0.053,0.227 0.162,0.385 0.327,0.475c0.164,0.09 0.361,0.108 0.591,0.053c0.23,-0.054 0.411,-0.142 0.543,-0.264c0.132,-0.121 0.178,-0.268 0.137,-0.44c-0.04,-0.171 -0.154,-0.289 -0.342,-0.353c-0.187,-0.064 -0.403,-0.099 -0.648,-0.106c-0.244,-0.007 -0.491,-0.02 -0.741,-0.04c-0.251,-0.02 -0.476,-0.091 -0.678,-0.213c-0.201,-0.122 -0.33,-0.305 -0.388,-0.549c-0.09,-0.382 0.036,-0.751 0.379,-1.106c0.343,-0.356 0.736,-0.586 1.179,-0.691c0.488,-0.115 0.882,-0.103 1.184,0.037c0.177,0.081 0.288,0.217 0.333,0.408c0.045,0.191 0.009,0.363 -0.11,0.517c-0.119,0.154 -0.283,0.255 -0.494,0.305c-0.044,0.01 -0.101,0.018 -0.17,0.023c-0,-0.076 -0.007,-0.142 -0.02,-0.197c-0.038,-0.161 -0.128,-0.268 -0.269,-0.323c-0.142,-0.054 -0.316,-0.057 -0.524,-0.008c-0.208,0.049 -0.387,0.136 -0.54,0.259c-0.045,0.104 -0.052,0.226 -0.019,0.364c0.033,0.139 0.14,0.232 0.32,0.28c0.181,0.048 0.394,0.077 0.639,0.086c0.245,0.009 0.493,0.027 0.745,0.052c0.251,0.026 0.477,0.104 0.678,0.235c0.2,0.131 0.331,0.324 0.391,0.579c0.098,0.415 -0.027,0.809 -0.375,1.18c-0.348,0.372 -0.741,0.609 -1.178,0.712c-0.438,0.103 -0.818,0.11 -1.141,0.019c-0.322,-0.09 -0.521,-0.296 -0.597,-0.617c-0.047,-0.2 -0.012,-0.379 0.106,-0.538c0.117,-0.16 0.281,-0.264 0.491,-0.314c0.045,-0.01 0.101,-0.018 0.17,-0.022Z" style="fill:#c33748;fill-rule:nonzero;"/></svg>