<?xml version="1.0" encoding="UTF-8" standalone="no"?><!DOCTYPE svg PUBLIC "-//W3C//DTD SVG 1.1//EN" "http://www.w3.org/Graphics/SVG/1.1/DTD/svg11.dtd"><svg width="100%" height="100%" viewBox="0 0 80 62" version="1.1" xmlns="http://www.w3.org/2000/svg" xmlns:xlink="http://www.w3.org/1999/xlink" xml:space="preserve" xmlns:serif="http://www.serif.com/" style="fill-rule:evenodd;clip-rule:evenodd;stroke-linecap:round;stroke-linejoin:round;stroke-miterlimit:1.5;"><path d="M33.747,10.121l0.005,0.066l0.205,0.377l0.021,0.252l-0.126,0.528l0.085,-0.007c0.321,-0.194 0.648,-0.306 0.983,-0.33l0.249,-0.018l0.357,0.233l0.033,0.383c-0.23,0.238 -0.45,0.359 -0.642,0.373c-0.282,-0.366 -0.47,-0.545 -0.548,-0.539c-0.128,0.009 -0.205,0.119 -0.222,0.335c0.266,0.671 0.659,0.99 1.171,0.953l0.086,-0.007c0.556,-0.04 0.893,-0.368 1.006,-0.977c-0.645,-1.162 -1.53,-1.704 -2.663,-1.622Zm5.605,-0.341l-0.42,0.031c-0.582,0.412 -0.851,0.861 -0.809,1.355c0.049,0.565 0.508,0.983 1.37,1.257c0.545,-0.172 0.8,-0.449 0.767,-0.833c-0.02,-0.236 -0.259,-0.434 -0.725,-0.593l-0.249,0.018l0.006,0.066l0.192,0.239l-0.556,0.366l-0.335,0.025l-0.181,-0.114l-0.006,-0.066c-0.038,-0.438 0.49,-0.802 1.591,-1.086l0.6,0.149l0.079,-0.005c-0.031,-0.362 0.212,-0.788 0.736,-1.279l-0.006,-0.066l-0.085,0.007c-0.676,0.308 -1.335,0.483 -1.969,0.529Zm2.284,0.226l0.011,0.126c0.065,0.254 0.162,0.374 0.283,0.366l0.171,-0.013l-0.124,-0.443c0.609,-0.088 0.904,-0.237 0.886,-0.451l0.634,-0.371l0.171,-0.013l0.288,0.432l0.171,-0.013l-0.005,-0.06c-0.03,-0.346 -0.385,-0.557 -1.065,-0.634c-0.986,0.286 -1.458,0.641 -1.421,1.074Zm5.427,-2.336l19.285,-1.401l0.016,0.192l-0.152,0.143l-18.951,1.377l-0.181,-0.12l-0.017,-0.191Zm-38.99,2.831l19.121,-1.388l0.028,0.323l-19.121,1.389l-0.175,-0.12l-0.006,-0.065l0.153,-0.139Zm26.739,-2.653l0.141,0.635c-0.363,0.197 -0.661,0.307 -0.896,0.324l0.011,0.132l1.24,0.748c0.499,-0.036 0.734,-0.29 0.694,-0.761l-0.006,-0.066l-0.273,-0.174l-0.249,0.018l-0.079,0.072l-0.334,-0.042l-0.016,-0.192c0.437,-0.075 0.651,-0.174 0.64,-0.305l-0.006,-0.066c-0.289,-0.277 -0.58,-0.41 -0.872,-0.389l0.005,0.066Zm-7.831,-0.21l0.017,0.198c0.147,0.375 0.299,0.558 0.469,0.545c0.193,-0.014 0.414,-0.118 0.648,-0.306l0.017,0.192c-0.344,0.417 -0.663,0.633 -0.955,0.654l-0.164,0.012c-0.534,0.039 -0.882,-0.174 -1.065,-0.635l-0.011,-0.131c0.209,-0.313 0.56,-0.493 1.044,-0.529Zm6.093,-0.503l0.066,0.768l0.091,0.06l0.006,0.065l-0.086,0.006c0.222,0.326 0.38,0.492 0.458,0.486c0.114,-0.008 0.163,-0.1 0.149,-0.27c0.461,-0.641 0.963,-0.975 1.504,-1.014l1.021,0.119l-0.017,-0.192c-0.636,-0.732 -1.253,-1.073 -1.852,-1.03c-0.938,0.173 -1.383,0.509 -1.34,1.002Zm3.081,-3.263c0.067,0.784 0.279,1.326 0.643,1.636l0.085,-0.007l0.108,-0.658c-0.045,-0.532 -0.239,-0.866 -0.587,-0.989l-0.249,0.018Zm0.336,-0.93c0.669,-0.048 1.04,0.333 1.11,1.15l0.005,0.061c0.055,0.641 -0.195,1.31 -0.753,1.996l0.006,0.066l0.202,0.438c-0.025,0.206 -0.226,0.457 -0.602,0.75l0.006,0.065c0.245,0.264 0.371,0.492 0.388,0.684l0.086,-0.006c0.71,-0.741 1.458,-1.138 2.248,-1.195c0.681,0.077 1.038,0.31 1.071,0.694c-0.405,0.377 -0.725,0.571 -0.96,0.589l-0.006,-0.066c-0.204,-0.46 -0.503,-0.675 -0.895,-0.647l-0.42,0.031c-0.162,0.033 -0.232,0.21 -0.204,0.533l0.005,0.066l0.999,-0.139l0.102,0.186c-0.203,0.147 -0.39,0.221 -0.568,0.234l-0.421,0.031l0.012,0.131c0.389,0.435 0.803,0.665 1.235,0.683l0.085,-0.006c0.943,-0.703 1.402,-1.294 1.36,-1.776c-0.392,-1.136 -1.083,-1.67 -2.074,-1.599c-0.384,0.028 -0.767,0.167 -1.14,0.409l-0.085,0.006l-0.011,-0.126c0.429,-0.423 1.025,-0.659 1.788,-0.715c1.126,-0.081 1.978,0.331 2.544,1.239c0.767,0.418 1.4,0.61 1.899,0.573l0.249,-0.018c0.142,-0.01 0.263,-0.189 0.376,-0.545c-0.211,-0.289 -0.502,-0.416 -0.88,-0.389l-0.005,-0.066c0.419,-0.372 0.768,-0.568 1.046,-0.589c0.504,0.024 0.769,0.198 0.797,0.522c0.053,0.609 -0.685,1.114 -2.22,1.518l-0.085,0.006l-1.361,-0.226c-0.185,0.427 -0.807,1.029 -1.858,1.817l0.006,0.066l0.164,-0.012c1.061,-0.077 2.138,-0.564 3.236,-1.465c0.698,-0.31 1.867,-0.715 3.507,-1.226l-0.033,-0.384l-0.362,-0.293l-0.011,-0.132l0.903,-0.259c0.348,-0.025 0.586,0.151 0.718,0.527c0.021,0.236 -0.463,0.531 -1.436,0.883l0.006,0.065c0.412,0.29 0.633,0.534 0.65,0.726l0.017,0.197c-0.111,0.212 -0.502,0.583 -1.166,1.116l-0.171,0.013l-0.006,-0.066l0.122,-0.588c-0.035,-0.406 -0.447,-0.613 -1.23,-0.623l-0.249,0.019c-0.604,0.148 -0.9,0.28 -0.891,0.39c0.997,-0.073 1.529,0.187 1.581,0.79l0.005,0.06c0.036,0.423 -0.492,0.781 -1.591,1.086l-0.26,-0.107l-0.086,0.006c0.038,0.439 -0.405,0.79 -1.335,1.062l-0.515,-0.155l-0.085,0.006c0.081,0.943 -0.676,1.561 -2.279,1.848c-1.011,-0.087 -1.55,-0.439 -1.603,-1.048c-0.054,-0.63 0.313,-1.28 1.094,-1.955l-0.006,-0.066c-0.8,-0.217 -1.23,-0.639 -1.284,-1.263l-0.25,0.018c0.029,0.334 -0.328,0.768 -1.063,1.307l0.006,0.066c0.442,-0.032 0.899,0.365 1.364,1.192c0.065,0.751 -0.254,1.292 -0.957,1.619c-0.427,0.208 -0.812,0.319 -1.146,0.343c-0.513,0.038 -1.026,-0.097 -1.548,-0.4l-0.18,-0.186l-0.017,-0.192l0.28,-0.666c-0.598,0.391 -1.003,0.591 -1.21,0.607c-0.334,0.024 -0.511,-0.118 -0.537,-0.414c-0.033,-0.389 0.171,-0.597 0.612,-0.629l0.336,-0.024l0.033,0.389l0.182,0.114c0.164,-0.012 0.241,-0.106 0.227,-0.276c-0.063,-0.729 -0.691,-1.197 -1.885,-1.414l-0.25,0.018c-0.263,0.02 -0.454,0.138 -0.557,0.361c0.024,0.279 0.289,0.437 0.793,0.461l0.25,-0.018l0.011,0.132l-1.056,0.396l-0.335,0.025c-0.287,-0.084 -0.444,-0.25 -0.464,-0.48l-0.006,-0.066c-0.034,-0.394 0.572,-0.852 1.819,-1.362l-0.006,-0.066c-1.256,-0.598 -2.147,-0.875 -2.674,-0.837c-0.278,0.02 -0.468,0.139 -0.557,0.366l0.033,0.383c0.243,0.242 0.475,0.352 0.696,0.336c-0.231,0.403 -0.52,0.623 -0.862,0.647l-0.171,0.013c-0.348,-0.129 -0.53,-0.331 -0.554,-0.611c0.161,-0.872 0.79,-1.392 1.881,-1.554l0.329,-0.091c0.427,-0.031 1.434,0.261 3.014,0.879l0.164,-0.012c-0.197,-0.382 -0.314,-0.743 -0.343,-1.073l-0.022,-0.257l-0.078,0.006c-0.491,0.383 -0.861,0.581 -1.125,0.6l-0.085,0.006c-0.434,0.031 -0.761,-0.182 -0.98,-0.64c0.057,-0.175 0.318,-0.393 0.783,-0.642l0.822,0.718c0.328,-0.024 0.722,-0.356 1.169,-0.99c0.879,-0.709 1.635,-1.089 2.254,-1.134c0.257,-0.019 0.626,0.109 1.129,0.37l0.164,-0.012c-0.363,-0.305 -0.583,-0.939 -0.664,-1.888l-0.006,-0.066l0.08,-0.072l-0.006,-0.066l-0.085,0.007c0.069,-0.519 0.325,-0.796 0.767,-0.829Z" style="fill:#1c5d3b;fill-rule:nonzero;"/><g><path d="M19.165,39.879c0.95,-8.165 5.077,-14.745 13.088,-19.389c0.691,3.272 7.955,2.475 17.93,-0c2.568,2.281 4.745,3.394 6.506,3.266c4.464,10.049 6.004,12.982 6.431,13.204c-0.235,2 -0.345,3.884 -0.378,5.699c-5.621,13.064 -10.761,12.461 -15.963,13.621c-0.539,-0.386 -1.403,-0.472 -2.951,0.069c-6.388,1.625 -10.206,0.992 -11.953,-1.459c-4.316,-0.951 -6.831,-2.848 -8.322,-5.282l-1.665,-3.614l-2.723,-6.115Zm23.075,3.14c4.175,-2.898 5.344,-5.906 3.215,-9.035c-1.53,0.199 -2.6,1.134 -3.121,2.954c0.097,-2.573 -0.916,-3.363 -2.837,-2.693c-2.765,0.943 -1.806,3.892 2.743,8.774Z" style="fill:#853a16;stroke:#8d370d;stroke-width:0.55px;"/><path d="M31.837,21.98c3.72,2.535 10.15,2.492 19.519,-0.348c0.812,1.088 2.416,1.902 4.842,2.433c1.767,6.59 4.056,10.147 6.431,13.204c-0.024,0.92 -0.077,1.972 -0.303,3.822c-2.648,10.447 -9.608,14.733 -19.519,14.802c-4.909,1.944 -8.759,1.161 -11.651,-2.085c-3.51,-0.348 -6.223,-2.014 -7.717,-5.698l-0.454,-1.668c-4.69,-7.595 -1.661,-15.755 8.852,-24.462Zm10.024,20.865c4.176,-2.897 5.345,-5.905 3.216,-9.034c-1.53,0.198 -2.6,1.134 -3.121,2.953c0.097,-2.573 -0.916,-3.363 -2.837,-2.693c-2.765,0.944 -1.806,3.893 2.742,8.774Z" style="fill:#d6ae82;stroke:#d6ae82;stroke-width:0.55px;"/><g><path d="M32.57,27.556c1.189,3.211 2.657,5.65 4.35,7.471" style="fill:#853a16;stroke:#853a16;stroke-width:0.04px;"/><path d="M37.582,25.993c0.536,1.939 1.324,3.185 2.364,3.735" style="fill:none;stroke:#853a16;stroke-width:0.04px;"/><path d="M41.554,25.819l-0.378,0.955" style="fill:none;stroke:#853a16;stroke-width:0.04px;"/><path d="M45.715,33.29c2.115,-2.049 3.369,-3.57 3.972,-4.691" style="fill:none;stroke:#853a16;stroke-width:0.04px;"/><path d="M53.091,31.205l-1.891,3.127c2.652,0.271 4.535,-1.458 5.674,-5.125" style="fill:none;stroke:#853a16;stroke-width:0.04px;"/><path d="M45.242,41.108l9.362,-0.608" style="fill:none;stroke:#853a16;stroke-width:0.04px;"/><path d="M47.417,44.582l3.499,0.608" style="fill:none;stroke:#853a16;stroke-width:0.04px;"/><path d="M50.632,50.75c-0.711,1.09 -1.778,1.69 -3.499,1.39" style="fill:none;stroke:#853a16;stroke-width:0.04px;"/><path d="M45.337,47.102c-1.511,-0.82 -2.059,-2.303 -2.554,-3.823" style="fill:none;stroke:#853a16;stroke-width:0.04px;"/><path d="M34.367,46.841c2.096,-1.074 3.894,-2.313 4.728,-4.083" style="fill:none;stroke:#853a16;stroke-width:0.04px;"/><path d="M40.987,44.93l0.472,-1.651" style="fill:none;stroke:#853a16;stroke-width:0.04px;"/><path d="M38.149,39.805l-5.201,-0.522" style="fill:none;stroke:#853a16;stroke-width:0.04px;"/></g></g><ellipse cx="42.134" cy="38.452" rx="11.112" ry="9.382" style="fill:#a44b18;fill-opacity:0.38;stroke:#a45927;stroke-opacity:0.28;stroke-width:0.04px;"/><g transform="matrix(0.998759,-0.0497947,0.0542086,0.917435,-0.497732,2.69794)"><g transform="matrix(7.92725,0,0,7.92725,3.80836,16.5371)"><path d="M0.421,-0c-0.021,-0 -0.039,-0.007 -0.054,-0.02c-0.016,-0.013 -0.024,-0.031 -0.024,-0.056c0,-0.025 0.013,-0.072 0.038,-0.143c-0.153,-0.033 -0.26,-0.078 -0.319,-0.133c-0.035,-0.032 -0.052,-0.07 -0.052,-0.113c0,-0.029 0.008,-0.055 0.025,-0.08c0.017,-0.025 0.038,-0.044 0.065,-0.057c0.004,0.086 0.035,0.153 0.092,0.202c0.057,0.049 0.131,0.082 0.22,0.101c0.018,-0.043 0.042,-0.104 0.071,-0.181c0.037,-0.099 0.062,-0.173 0.074,-0.222c0.028,-0.009 0.053,-0.014 0.076,-0.014c0.035,0 0.062,0.012 0.081,0.037c0.019,0.024 0.034,0.058 0.045,0.103c0.003,0.013 0.01,0.043 0.021,0.088c0.01,0.045 0.018,0.082 0.025,0.11c0.021,0.087 0.04,0.155 0.057,0.203c0.016,0.048 0.044,0.086 0.081,0.115c-0.008,0.02 -0.021,0.036 -0.039,0.048c-0.019,0.012 -0.039,0.018 -0.06,0.018c-0.049,-0 -0.084,-0.037 -0.107,-0.11c-0.011,-0.034 -0.02,-0.067 -0.029,-0.1c-0.023,0.008 -0.053,0.012 -0.09,0.012c-0.037,0 -0.078,-0.003 -0.125,-0.008c-0.019,0.073 -0.029,0.133 -0.029,0.179c0,0.009 0,0.015 0.001,0.019c-0.009,0.001 -0.023,0.002 -0.044,0.002Zm0.206,-0.605c-0.049,0.131 -0.086,0.237 -0.111,0.32c0.027,0.002 0.055,0.003 0.084,0.003c0.028,0 0.057,-0.003 0.088,-0.009c-0.006,-0.027 -0.026,-0.132 -0.061,-0.314Z" style="fill:#c13748;fill-rule:nonzero;stroke:#853a16;stroke-opacity:0;stroke-width:0.03px;stroke-linecap:butt;stroke-miterlimit:2;"/></g><g transform="matrix(7.92725,0,0,7.92725,3.80836,16.5371)"></g><g transform="matrix(7.92725,0,0,7.92725,31.4982,16.5371)"><path d="M0.421,-0c-0.021,-0 -0.039,-0.007 -0.054,-0.02c-0.016,-0.013 -0.024,-0.031 -0.024,-0.056c0,-0.025 0.013,-0.072 0.038,-0.143c-0.153,-0.033 -0.26,-0.078 -0.319,-0.133c-0.035,-0.032 -0.052,-0.07 -0.052,-0.113c0,-0.029 0.008,-0.055 0.025,-0.08c0.017,-0.025 0.038,-0.044 0.065,-0.057c0.004,0.086 0.035,0.153 0.092,0.202c0.057,0.049 0.131,0.082 0.22,0.101c0.018,-0.043 0.042,-0.104 0.071,-0.181c0.037,-0.099 0.062,-0.173 0.074,-0.222c0.028,-0.009 0.053,-0.014 0.076,-0.014c0.035,0 0.062,0.012 0.081,0.037c0.019,0.024 0.034,0.058 0.045,0.103c0.003,0.013 0.01,0.043 0.021,0.088c0.01,0.045 0.018,0.082 0.025,0.11c0.021,0.087 0.04,0.155 0.057,0.203c0.016,0.048 0.044,0.086 0.081,0.115c-0.008,0.02 -0.021,0.036 -0.039,0.048c-0.019,0.012 -0.039,0.018 -0.06,0.018c-0.049,-0 -0.084,-0.037 -0.107,-0.11c-0.011,-0.034 -0.02,-0.067 -0.029,-0.1c-0.023,0.008 -0.053,0.012 -0.09,0.012c-0.037,0 -0.078,-0.003 -0.125,-0.008c-0.019,0.073 -0.029,0.133 -0.029,0.179c0,0.009 0,0.015 0.001,0.019c-0.009,0.001 -0.023,0.002 -0.044,0.002Zm0.206,-0.605c-0.049,0.131 -0.086,0.237 -0.111,0.32c0.027,0.002 0.055,0.003 0.084,0.003c0.028,0 0.057,-0.003 0.088,-0.009c-0.006,-0.027 -0.026,-0.132 -0.061,-0.314Z" style="fill:#c13748;fill-rule:nonzero;stroke:#853a16;stroke-opacity:0;stroke-width:0.03px;stroke-linecap:butt;stroke-miterlimit:2;"/></g><g transform="matrix(7.92725,0,0,7.92725,31.4982,16.5371)"></g><g transform="matrix(7.92725,0,0,7.92725,75.9622,16.5371)"></g><text x="11.323px" y="16.537px" style="font-family:'Salsa-Regular', 'Salsa';font-size:7.927px;fill:#c13748;stroke:#853a16;stroke-opacity:0;stroke-width:0.25px;stroke-linecap:butt;stroke-miterlimit:2;"><tspan x="11.323px " y="16.537px ">p</tspan>ril&apos;s <tspan x="39.013px " y="16.537px ">p</tspan>ple Chips</text></g></svg>