<?xml version="1.0" encoding="UTF-8" standalone="no"?><!DOCTYPE svg PUBLIC "-//W3C//DTD SVG 1.1//EN" "http://www.w3.org/Graphics/SVG/1.1/DTD/svg11.dtd"><svg width="100%" height="100%" viewBox="0 0 28 6" version="1.1" xmlns="http://www.w3.org/2000/svg" xmlns:xlink="http://www.w3.org/1999/xlink" xml:space="preserve" xmlns:serif="http://www.serif.com/" style="fill-rule:evenodd;clip-rule:evenodd;stroke-linejoin:round;stroke-miterlimit:2;"><path d="M9.725,2.465l0.002,0.023l0.066,0.132l0.007,0.088l-0.041,0.185l0.028,-0.002c0.103,-0.069 0.208,-0.108 0.316,-0.116l0.08,-0.007l0.115,0.082l0.01,0.134c-0.074,0.084 -0.144,0.126 -0.206,0.131c-0.091,-0.128 -0.151,-0.191 -0.176,-0.189c-0.042,0.003 -0.066,0.042 -0.072,0.118c0.086,0.234 0.212,0.346 0.377,0.333l0.028,-0.002c0.178,-0.014 0.287,-0.129 0.323,-0.343c-0.207,-0.406 -0.492,-0.596 -0.857,-0.567Zm1.803,-0.12l-0.135,0.011c-0.187,0.144 -0.274,0.302 -0.26,0.474c0.016,0.198 0.163,0.345 0.441,0.441c0.175,-0.06 0.257,-0.158 0.247,-0.292c-0.007,-0.083 -0.084,-0.152 -0.234,-0.208l-0.08,0.007l0.002,0.023l0.062,0.084l-0.179,0.128l-0.108,0.008l-0.058,-0.04l-0.002,-0.023c-0.012,-0.153 0.158,-0.281 0.512,-0.38l0.193,0.052l0.025,-0.002c-0.01,-0.126 0.068,-0.275 0.237,-0.447l-0.002,-0.023l-0.028,0.002c-0.217,0.108 -0.429,0.169 -0.633,0.185Zm0.735,0.079l0.004,0.044c0.02,0.09 0.051,0.132 0.09,0.128l0.055,-0.004l-0.039,-0.155c0.195,-0.031 0.29,-0.083 0.284,-0.158l0.204,-0.13l0.056,-0.004l0.092,0.151l0.055,-0.005l-0.001,-0.021c-0.01,-0.121 -0.124,-0.195 -0.343,-0.222c-0.317,0.1 -0.469,0.225 -0.457,0.376Zm1.745,-0.818l6.203,-0.49l0.005,0.067l-0.049,0.05l-6.095,0.482l-0.058,-0.042l-0.006,-0.067Zm-12.54,0.992l6.15,-0.486l0.009,0.113l-6.15,0.486l-0.056,-0.042l-0.002,-0.023l0.049,-0.048Zm8.6,-0.929l0.045,0.222c-0.116,0.069 -0.212,0.108 -0.288,0.114l0.004,0.046l0.399,0.262c0.16,-0.013 0.236,-0.102 0.223,-0.267l-0.002,-0.023l-0.088,-0.061l-0.08,0.007l-0.026,0.025l-0.107,-0.015l-0.005,-0.067c0.141,-0.027 0.209,-0.061 0.206,-0.107l-0.002,-0.023c-0.093,-0.097 -0.187,-0.144 -0.281,-0.136l0.002,0.023Zm-2.519,-0.074l0.006,0.07c0.047,0.131 0.096,0.195 0.151,0.19c0.062,-0.004 0.133,-0.041 0.208,-0.107l0.006,0.067c-0.111,0.146 -0.213,0.222 -0.307,0.229l-0.053,0.005c-0.172,0.013 -0.284,-0.061 -0.343,-0.223l-0.003,-0.046c0.067,-0.109 0.18,-0.172 0.335,-0.185Zm1.96,-0.176l0.021,0.269l0.03,0.021l0.002,0.023l-0.028,0.002c0.071,0.114 0.122,0.172 0.147,0.17c0.037,-0.003 0.053,-0.035 0.048,-0.095c0.148,-0.224 0.31,-0.341 0.484,-0.355l0.328,0.042l-0.005,-0.067c-0.205,-0.256 -0.403,-0.376 -0.596,-0.361c-0.302,0.061 -0.445,0.178 -0.431,0.351Zm0.991,-1.143c0.022,0.275 0.09,0.465 0.207,0.573l0.027,-0.002l0.035,-0.231c-0.015,-0.186 -0.077,-0.303 -0.189,-0.346l-0.08,0.006Zm0.108,-0.325c0.215,-0.017 0.334,0.117 0.357,0.403l0.002,0.021c0.018,0.224 -0.063,0.459 -0.242,0.699l0.001,0.023l0.066,0.153c-0.009,0.072 -0.073,0.16 -0.194,0.263l0.002,0.023c0.078,0.092 0.119,0.172 0.125,0.239l0.027,-0.002c0.229,-0.26 0.469,-0.398 0.723,-0.418c0.219,0.027 0.334,0.108 0.345,0.243c-0.131,0.132 -0.234,0.2 -0.309,0.206l-0.002,-0.023c-0.066,-0.161 -0.162,-0.237 -0.288,-0.227l-0.135,0.011c-0.052,0.012 -0.075,0.073 -0.066,0.187l0.002,0.023l0.321,-0.049l0.033,0.065c-0.065,0.052 -0.125,0.078 -0.182,0.082l-0.136,0.011l0.004,0.046c0.125,0.152 0.258,0.233 0.397,0.239l0.028,-0.002c0.303,-0.246 0.45,-0.453 0.437,-0.622c-0.126,-0.398 -0.349,-0.585 -0.667,-0.56c-0.124,0.01 -0.247,0.059 -0.367,0.143l-0.027,0.003l-0.004,-0.045c0.138,-0.148 0.33,-0.23 0.575,-0.25c0.362,-0.028 0.637,0.116 0.819,0.434c0.246,0.146 0.45,0.213 0.61,0.201l0.08,-0.007c0.046,-0.003 0.085,-0.066 0.121,-0.191c-0.068,-0.101 -0.161,-0.145 -0.283,-0.136l-0.001,-0.023c0.135,-0.13 0.247,-0.199 0.336,-0.206c0.162,0.008 0.248,0.069 0.257,0.183c0.017,0.213 -0.221,0.39 -0.714,0.531l-0.028,0.002l-0.437,-0.079c-0.06,0.15 -0.26,0.361 -0.598,0.636l0.002,0.023l0.052,-0.004c0.342,-0.027 0.688,-0.197 1.041,-0.513c0.225,-0.108 0.601,-0.25 1.128,-0.429l-0.01,-0.134l-0.117,-0.103l-0.003,-0.046l0.29,-0.091c0.112,-0.009 0.189,0.053 0.231,0.185c0.007,0.082 -0.149,0.185 -0.462,0.309l0.002,0.023c0.133,0.101 0.204,0.186 0.209,0.254l0.006,0.069c-0.036,0.074 -0.162,0.204 -0.375,0.391l-0.055,0.004l-0.002,-0.023l0.039,-0.206c-0.011,-0.142 -0.144,-0.215 -0.396,-0.218l-0.08,0.006c-0.194,0.052 -0.289,0.099 -0.286,0.137c0.32,-0.025 0.491,0.066 0.508,0.277l0.002,0.021c0.012,0.148 -0.158,0.273 -0.512,0.38l-0.084,-0.038l-0.027,0.003c0.012,0.153 -0.131,0.276 -0.43,0.372l-0.165,-0.055l-0.028,0.002c0.026,0.33 -0.217,0.547 -0.732,0.647c-0.326,-0.03 -0.499,-0.153 -0.516,-0.367c-0.018,-0.22 0.101,-0.448 0.352,-0.684l-0.002,-0.023c-0.257,-0.076 -0.396,-0.224 -0.413,-0.443l-0.08,0.007c0.009,0.117 -0.106,0.269 -0.342,0.457l0.001,0.023c0.143,-0.011 0.289,0.128 0.439,0.418c0.021,0.263 -0.081,0.453 -0.308,0.567c-0.137,0.073 -0.261,0.112 -0.368,0.12c-0.165,0.013 -0.33,-0.034 -0.498,-0.14l-0.058,-0.065l-0.005,-0.067l0.089,-0.234c-0.192,0.137 -0.322,0.207 -0.388,0.213c-0.108,0.008 -0.165,-0.041 -0.173,-0.145c-0.011,-0.136 0.055,-0.209 0.197,-0.22l0.107,-0.009l0.011,0.137l0.059,0.039c0.052,-0.004 0.077,-0.037 0.073,-0.096c-0.02,-0.256 -0.222,-0.419 -0.607,-0.495l-0.08,0.006c-0.084,0.007 -0.146,0.048 -0.179,0.126c0.008,0.098 0.093,0.153 0.255,0.162l0.08,-0.007l0.004,0.046l-0.34,0.139l-0.107,0.009c-0.093,-0.029 -0.143,-0.087 -0.15,-0.168l-0.002,-0.023c-0.01,-0.138 0.184,-0.299 0.585,-0.477l-0.001,-0.023c-0.404,-0.21 -0.691,-0.307 -0.861,-0.293c-0.089,0.007 -0.15,0.048 -0.179,0.128l0.011,0.134c0.078,0.085 0.153,0.123 0.224,0.118c-0.074,0.141 -0.168,0.218 -0.277,0.226l-0.055,0.005c-0.112,-0.045 -0.171,-0.116 -0.179,-0.214c0.052,-0.305 0.255,-0.488 0.605,-0.544l0.106,-0.032c0.137,-0.011 0.461,0.091 0.97,0.308l0.052,-0.004c-0.063,-0.134 -0.101,-0.261 -0.11,-0.376l-0.007,-0.09l-0.025,0.002c-0.158,0.134 -0.277,0.203 -0.362,0.21l-0.027,0.002c-0.14,0.011 -0.245,-0.064 -0.316,-0.224c0.019,-0.061 0.103,-0.138 0.252,-0.225l0.265,0.252c0.105,-0.009 0.232,-0.125 0.376,-0.347c0.282,-0.248 0.525,-0.381 0.725,-0.397c0.082,-0.007 0.201,0.038 0.363,0.129l0.052,-0.004c-0.116,-0.106 -0.187,-0.329 -0.213,-0.661l-0.002,-0.023l0.026,-0.025l-0.002,-0.023l-0.028,0.002c0.023,-0.181 0.105,-0.279 0.247,-0.29Z" style="fill:#1c5d3b;fill-rule:nonzero;"/><g transform="matrix(0.99853,-0.0541962,0.0541962,0.99853,-0.115965,0.596659)"><g transform="matrix(2.55025,0,0,2.55025,0.0938497,4.52641)"><path d="M0.421,-0c-0.021,-0 -0.039,-0.007 -0.054,-0.02c-0.016,-0.013 -0.024,-0.031 -0.024,-0.056c0,-0.025 0.013,-0.072 0.038,-0.143c-0.153,-0.033 -0.26,-0.078 -0.319,-0.133c-0.035,-0.032 -0.052,-0.07 -0.052,-0.113c0,-0.029 0.008,-0.055 0.025,-0.08c0.017,-0.025 0.038,-0.044 0.065,-0.057c0.004,0.086 0.035,0.153 0.092,0.202c0.057,0.049 0.131,0.082 0.22,0.101c0.018,-0.043 0.042,-0.104 0.071,-0.181c0.037,-0.099 0.062,-0.173 0.074,-0.222c0.028,-0.009 0.053,-0.014 0.076,-0.014c0.035,0 0.062,0.012 0.081,0.037c0.019,0.024 0.034,0.058 0.045,0.103c0.003,0.013 0.01,0.043 0.021,0.088c0.01,0.045 0.018,0.082 0.025,0.11c0.021,0.087 0.04,0.155 0.057,0.203c0.016,0.048 0.044,0.086 0.081,0.115c-0.008,0.02 -0.021,0.036 -0.039,0.048c-0.019,0.012 -0.039,0.018 -0.06,0.018c-0.049,-0 -0.084,-0.037 -0.107,-0.11c-0.011,-0.034 -0.02,-0.067 -0.029,-0.1c-0.023,0.008 -0.053,0.012 -0.09,0.012c-0.037,0 -0.078,-0.003 -0.125,-0.008c-0.019,0.073 -0.029,0.133 -0.029,0.179c0,0.009 0,0.015 0.001,0.019c-0.009,0.001 -0.023,0.002 -0.044,0.002Zm0.206,-0.605c-0.049,0.131 -0.086,0.237 -0.111,0.32c0.027,0.002 0.055,0.003 0.084,0.003c0.028,0 0.057,-0.003 0.088,-0.009c-0.006,-0.027 -0.026,-0.132 -0.061,-0.314Z" style="fill:#c13748;fill-rule:nonzero;stroke:#853a16;stroke-opacity:0;stroke-width:0.09px;"/></g><g transform="matrix(2.55025,0,0,2.55025,0.0938497,4.52641)"></g><g transform="matrix(2.55025,0,0,2.55025,13.957,4.52641)"><path d="M0.531,-0.586c-0.247,0.07 -0.381,0.183 -0.4,0.338c-0.021,-0.008 -0.038,-0.023 -0.051,-0.044c-0.013,-0.021 -0.02,-0.042 -0.02,-0.065c0,-0.045 0.017,-0.087 0.052,-0.127c0.035,-0.039 0.079,-0.073 0.133,-0.101c0.054,-0.027 0.114,-0.051 0.179,-0.071c0.127,-0.04 0.244,-0.06 0.352,-0.06c0.067,0 0.12,0.012 0.161,0.037c0.041,0.025 0.061,0.066 0.061,0.122c0,0.065 -0.03,0.114 -0.091,0.148c0.041,0.01 0.074,0.029 0.101,0.057c0.027,0.029 0.04,0.064 0.04,0.107c0,0.08 -0.03,0.142 -0.089,0.185c-0.059,0.044 -0.133,0.066 -0.22,0.066c-0.087,-0 -0.163,-0.017 -0.227,-0.052c0.021,-0.072 0.031,-0.161 0.031,-0.267c-0,-0.106 -0.004,-0.197 -0.012,-0.273Zm0.138,0.484c0.029,0.009 0.059,0.014 0.088,0.014c0.046,-0 0.084,-0.012 0.114,-0.035c0.03,-0.023 0.045,-0.055 0.045,-0.097c-0,-0.08 -0.043,-0.12 -0.13,-0.12c-0.041,-0 -0.083,0.009 -0.126,0.026c-0,0.067 0.003,0.138 0.009,0.212Zm-0.01,-0.3c0.009,-0.002 0.023,-0.004 0.041,-0.007c0.019,-0.003 0.033,-0.005 0.043,-0.007c0.01,-0.002 0.022,-0.005 0.037,-0.009c0.015,-0.004 0.027,-0.009 0.035,-0.015c0.009,-0.005 0.017,-0.012 0.026,-0.021c0.017,-0.017 0.025,-0.041 0.025,-0.073c-0,-0.062 -0.037,-0.093 -0.111,-0.093c-0.033,-0 -0.062,0.003 -0.088,0.009c-0.005,0.137 -0.008,0.209 -0.008,0.216Z" style="fill:#c13748;fill-rule:nonzero;stroke:#853a16;stroke-opacity:0;stroke-width:0.09px;"/></g><g transform="matrix(2.55025,0,0,2.55025,13.957,4.52641)"></g><g transform="matrix(2.55025,0,0,2.55025,20.1413,4.52641)"></g><text x="2.511px" y="4.526px" style="font-family:'Salsa-Regular', 'Salsa';font-size:2.55px;fill:#c13748;stroke:#853a16;stroke-opacity:0;stroke-width:0.24px;"><tspan x="2.511px " y="4.526px ">p</tspan>ple Chip <tspan x="16.734px " y="4.526px ">l</tspan>og</text></g><g><path d="M20.963,3.062c0.132,-1.157 0.709,-2.09 1.829,-2.749c0.096,0.464 1.111,0.351 2.505,0c0.359,0.324 0.663,0.481 0.909,0.463c0.624,1.425 0.839,1.841 0.899,1.873c-0.033,0.283 -0.048,0.55 -0.053,0.808c-0.785,1.852 -1.504,1.766 -2.231,1.931c-0.075,-0.055 -0.196,-0.067 -0.412,0.01c-0.893,0.23 -1.426,0.14 -1.67,-0.207c-0.603,-0.135 -0.955,-0.404 -1.163,-0.749l-0.233,-0.512l-0.38,-0.868Zm3.224,0.446c0.583,-0.411 0.747,-0.838 0.449,-1.281c-0.213,0.028 -0.363,0.16 -0.436,0.418c0.014,-0.365 -0.128,-0.476 -0.396,-0.381c-0.387,0.133 -0.253,0.551 0.383,1.244Z" style="fill:#853a16;stroke:#8d370d;stroke-width:0.55px;stroke-linecap:round;stroke-miterlimit:1.5;"/><path d="M22.733,0.524c0.52,0.36 1.419,0.354 2.728,-0.049c0.113,0.154 0.338,0.27 0.676,0.345c0.247,0.934 0.567,1.439 0.899,1.872c-0.003,0.131 -0.011,0.28 -0.042,0.542c-0.37,1.482 -1.343,2.089 -2.728,2.099c-0.686,0.276 -1.224,0.165 -1.628,-0.296c-0.49,-0.049 -0.869,-0.285 -1.078,-0.808l-0.063,-0.236c-0.656,-1.077 -0.233,-2.234 1.236,-3.469Zm1.401,2.959c0.584,-0.411 0.747,-0.837 0.449,-1.281c-0.213,0.028 -0.363,0.161 -0.436,0.419c0.014,-0.365 -0.128,-0.477 -0.396,-0.382c-0.386,0.134 -0.252,0.552 0.383,1.244Z" style="fill:#d6ae82;stroke:#d6ae82;stroke-width:0.55px;stroke-linecap:round;stroke-miterlimit:1.5;"/><path d="M22.836,1.315c0.166,0.455 0.371,0.801 0.608,1.059" style="fill:#853a16;stroke:#853a16;stroke-width:0.04px;stroke-linecap:round;stroke-miterlimit:1.5;"/><path d="M23.536,1.093c0.075,0.275 0.185,0.452 0.331,0.53" style="fill:none;stroke:#853a16;stroke-width:0.04px;stroke-linecap:round;stroke-miterlimit:1.5;"/><path d="M24.091,1.069l-0.053,0.135" style="fill:none;stroke:#853a16;stroke-width:0.04px;stroke-linecap:round;stroke-miterlimit:1.5;"/><path d="M24.673,2.128c0.295,-0.29 0.47,-0.506 0.555,-0.665" style="fill:none;stroke:#853a16;stroke-width:0.04px;stroke-linecap:round;stroke-miterlimit:1.5;"/><path d="M25.703,1.832l-0.264,0.444c0.371,0.038 0.634,-0.207 0.793,-0.727" style="fill:none;stroke:#853a16;stroke-width:0.04px;stroke-linecap:round;stroke-miterlimit:1.5;"/><path d="M24.607,3.237l1.308,-0.087" style="fill:none;stroke:#853a16;stroke-width:0.04px;stroke-linecap:round;stroke-miterlimit:1.5;"/><path d="M24.91,3.729l0.489,0.087" style="fill:none;stroke:#853a16;stroke-width:0.04px;stroke-linecap:round;stroke-miterlimit:1.5;"/><path d="M25.36,4.604c-0.1,0.154 -0.249,0.239 -0.489,0.197" style="fill:none;stroke:#853a16;stroke-width:0.04px;stroke-linecap:round;stroke-miterlimit:1.5;"/><path d="M24.62,4.086c-0.211,-0.116 -0.288,-0.326 -0.357,-0.541" style="fill:none;stroke:#853a16;stroke-width:0.04px;stroke-linecap:round;stroke-miterlimit:1.5;"/><path d="M23.087,4.05c0.293,-0.153 0.544,-0.328 0.661,-0.579" style="fill:none;stroke:#853a16;stroke-width:0.04px;stroke-linecap:round;stroke-miterlimit:1.5;"/><path d="M24.012,3.779l0.066,-0.234" style="fill:none;stroke:#853a16;stroke-width:0.04px;stroke-linecap:round;stroke-miterlimit:1.5;"/><path d="M23.615,3.052l-0.726,-0.074" style="fill:none;stroke:#853a16;stroke-width:0.04px;stroke-linecap:round;stroke-miterlimit:1.5;"/></g><ellipse cx="24.172" cy="2.86" rx="1.553" ry="1.33" style="fill:#a44b18;fill-opacity:0.38;stroke:#a45927;stroke-opacity:0.28;stroke-width:0.04px;stroke-linecap:round;stroke-miterlimit:1.5;"/></svg>