<?xml version="1.0" encoding="UTF-8" standalone="no"?><!DOCTYPE svg PUBLIC "-//W3C//DTD SVG 1.1//EN" "http://www.w3.org/Graphics/SVG/1.1/DTD/svg11.dtd"><svg width="100%" height="100%" viewBox="0 0 36 12" version="1.1" xmlns="http://www.w3.org/2000/svg" xmlns:xlink="http://www.w3.org/1999/xlink" xml:space="preserve" xmlns:serif="http://www.serif.com/" style="fill-rule:evenodd;clip-rule:evenodd;stroke-linecap:round;stroke-linejoin:round;stroke-miterlimit:1.5;"><g><g><path d="M27.282,8.096c0.157,-1.583 0.84,-2.859 2.165,-3.76c0.114,0.635 1.315,0.48 2.965,0c0.425,0.443 0.785,0.658 1.076,0.634c0.738,1.948 0.993,2.517 1.064,2.56c-0.039,0.388 -0.057,0.753 -0.063,1.105c-0.929,2.533 -1.78,2.416 -2.64,2.641c-0.089,-0.075 -0.232,-0.092 -0.488,0.013c-1.056,0.315 -1.688,0.192 -1.977,-0.283c-0.714,-0.184 -1.129,-0.552 -1.376,-1.024l-0.275,-0.701l-0.451,-1.185Zm3.816,0.608c0.691,-0.561 0.884,-1.145 0.532,-1.751c-0.253,0.038 -0.43,0.22 -0.516,0.572c0.016,-0.498 -0.151,-0.652 -0.469,-0.522c-0.457,0.183 -0.299,0.755 0.453,1.701Z" style="fill:#853a16;stroke:#8d370d;stroke-width:0.07px;"/><path d="M29.378,4.625c0.615,0.492 1.679,0.483 3.228,-0.067c0.134,0.211 0.4,0.369 0.801,0.472c0.292,1.277 0.671,1.967 1.063,2.56c-0.004,0.178 -0.012,0.382 -0.05,0.741c-0.438,2.025 -1.589,2.856 -3.228,2.87c-0.812,0.376 -1.448,0.225 -1.927,-0.405c-0.58,-0.067 -1.029,-0.39 -1.276,-1.104l-0.075,-0.324c-0.776,-1.472 -0.275,-3.055 1.464,-4.743Zm1.658,4.046c0.69,-0.562 0.884,-1.145 0.532,-1.752c-0.253,0.039 -0.43,0.22 -0.517,0.573c0.016,-0.499 -0.151,-0.652 -0.469,-0.522c-0.457,0.183 -0.298,0.754 0.454,1.701Z" style="fill:#d6ae82;stroke:#d6ae82;stroke-width:0.07px;"/><g><path d="M29.499,5.706c0.197,0.623 0.44,1.096 0.72,1.449" style="fill:#853a16;"/><path d="M30.328,5.403c0.089,0.376 0.219,0.618 0.391,0.725" style="fill:none;"/><path d="M30.985,5.37l-0.063,0.185" style="fill:none;"/><path d="M31.673,6.818c0.35,-0.397 0.557,-0.692 0.657,-0.909" style="fill:none;"/><path d="M32.893,6.414l-0.313,0.606c0.439,0.053 0.75,-0.283 0.939,-0.994" style="fill:none;"/><path d="M31.595,8.334l1.548,-0.118" style="fill:none;"/><path d="M31.955,9.008l0.578,0.118" style="fill:none;"/><path d="M32.486,10.203c-0.117,0.212 -0.294,0.328 -0.578,0.27" style="fill:none;"/><path d="M31.611,9.496c-0.25,-0.159 -0.341,-0.446 -0.423,-0.741" style="fill:none;"/><path d="M29.796,9.446c0.347,-0.209 0.644,-0.449 0.782,-0.792" style="fill:none;"/><path d="M30.891,9.075l0.078,-0.32" style="fill:none;"/><path d="M30.422,8.081l-0.86,-0.101" style="fill:none;"/></g></g><ellipse cx="31.081" cy="7.819" rx="1.838" ry="1.819" style="fill:#a44b18;fill-opacity:0.38;stroke:#a45927;stroke-opacity:0.28;stroke-width:0.01px;"/></g><path d="M13.001,3.816l0.002,0.03l0.079,0.172l0.009,0.115l-0.049,0.241l0.033,-0.003c0.125,-0.089 0.252,-0.14 0.382,-0.151l0.097,-0.008l0.14,0.106l0.013,0.175c-0.09,0.109 -0.176,0.164 -0.25,0.17c-0.11,-0.167 -0.184,-0.248 -0.214,-0.246c-0.05,0.004 -0.08,0.055 -0.086,0.153c0.103,0.307 0.256,0.452 0.456,0.435l0.033,-0.003c0.217,-0.018 0.348,-0.168 0.392,-0.446c-0.251,-0.53 -0.596,-0.778 -1.037,-0.74Zm2.182,-0.156l-0.163,0.014c-0.227,0.188 -0.332,0.393 -0.315,0.619c0.019,0.257 0.198,0.449 0.534,0.574c0.211,-0.079 0.311,-0.206 0.298,-0.381c-0.008,-0.108 -0.101,-0.198 -0.282,-0.27l-0.097,0.008l0.002,0.03l0.075,0.109l-0.217,0.167l-0.13,0.011l-0.071,-0.051l-0.002,-0.03c-0.015,-0.201 0.191,-0.367 0.62,-0.497l0.233,0.069l0.031,-0.003c-0.012,-0.165 0.082,-0.359 0.286,-0.583l-0.002,-0.03l-0.033,0.002c-0.263,0.141 -0.52,0.221 -0.767,0.242Zm0.89,0.103l0.004,0.058c0.026,0.116 0.063,0.171 0.11,0.167l0.067,-0.006l-0.048,-0.203c0.237,-0.04 0.352,-0.108 0.345,-0.205l0.247,-0.17l0.066,-0.005l0.112,0.196l0.067,-0.005l-0.002,-0.028c-0.012,-0.157 -0.15,-0.254 -0.415,-0.289c-0.384,0.131 -0.568,0.292 -0.553,0.49Zm2.113,-1.066l7.51,-0.64l0.006,0.088l-0.059,0.065l-7.38,0.629l-0.07,-0.055l-0.007,-0.087Zm-15.183,1.292l7.446,-0.634l0.011,0.148l-7.446,0.634l-0.068,-0.055l-0.002,-0.03l0.059,-0.063Zm10.413,-1.211l0.054,0.29c-0.141,0.09 -0.257,0.14 -0.349,0.148l0.005,0.06l0.483,0.342c0.194,-0.017 0.286,-0.133 0.27,-0.348l-0.002,-0.03l-0.107,-0.079l-0.097,0.008l-0.031,0.033l-0.129,-0.019l-0.007,-0.088c0.171,-0.034 0.254,-0.079 0.249,-0.14l-0.002,-0.03c-0.112,-0.126 -0.226,-0.187 -0.339,-0.177l0.002,0.03Zm-3.05,-0.096l0.007,0.091c0.057,0.171 0.116,0.254 0.183,0.248c0.075,-0.006 0.16,-0.053 0.252,-0.14l0.006,0.088c-0.134,0.19 -0.258,0.289 -0.371,0.299l-0.064,0.005c-0.208,0.018 -0.344,-0.079 -0.415,-0.289l-0.004,-0.06c0.081,-0.143 0.218,-0.226 0.406,-0.242Zm2.373,-0.229l0.025,0.35l0.036,0.027l0.002,0.03l-0.033,0.003c0.086,0.149 0.148,0.224 0.178,0.222c0.045,-0.004 0.064,-0.046 0.058,-0.123c0.18,-0.293 0.375,-0.445 0.586,-0.463l0.397,0.054l-0.006,-0.088c-0.248,-0.334 -0.488,-0.49 -0.721,-0.47c-0.366,0.079 -0.539,0.232 -0.522,0.458Zm1.199,-1.49c0.027,0.358 0.109,0.605 0.251,0.747l0.033,-0.003l0.042,-0.301c-0.018,-0.243 -0.093,-0.395 -0.228,-0.451l-0.098,0.008Zm0.131,-0.424c0.261,-0.023 0.405,0.151 0.433,0.524l0.002,0.028c0.021,0.293 -0.077,0.598 -0.294,0.911l0.003,0.031l0.078,0.199c-0.01,0.094 -0.088,0.209 -0.234,0.343l0.002,0.03c0.095,0.12 0.145,0.224 0.151,0.312l0.034,-0.003c0.276,-0.338 0.567,-0.519 0.875,-0.546c0.265,0.036 0.404,0.142 0.417,0.318c-0.158,0.172 -0.282,0.26 -0.374,0.268l-0.002,-0.03c-0.08,-0.21 -0.196,-0.308 -0.348,-0.295l-0.164,0.014c-0.063,0.015 -0.09,0.096 -0.08,0.243l0.003,0.03l0.389,-0.063l0.039,0.085c-0.079,0.067 -0.152,0.101 -0.221,0.107l-0.164,0.014l0.005,0.06c0.151,0.198 0.312,0.303 0.481,0.312l0.033,-0.003c0.367,-0.321 0.546,-0.591 0.529,-0.811c-0.152,-0.519 -0.421,-0.763 -0.807,-0.73c-0.15,0.013 -0.299,0.076 -0.444,0.186l-0.033,0.003l-0.005,-0.057c0.168,-0.193 0.4,-0.301 0.697,-0.326c0.438,-0.038 0.77,0.15 0.99,0.565c0.299,0.191 0.545,0.278 0.74,0.262l0.097,-0.008c0.055,-0.005 0.102,-0.087 0.146,-0.25c-0.082,-0.131 -0.195,-0.189 -0.342,-0.177l-0.003,-0.03c0.164,-0.17 0.3,-0.26 0.408,-0.269c0.196,0.011 0.3,0.091 0.31,0.238c0.021,0.278 -0.266,0.509 -0.864,0.693l-0.033,0.003l-0.53,-0.103c-0.072,0.195 -0.314,0.47 -0.724,0.829l0.003,0.03l0.063,-0.005c0.414,-0.035 0.833,-0.257 1.261,-0.669c0.271,-0.141 0.726,-0.326 1.365,-0.559l-0.012,-0.176l-0.142,-0.134l-0.004,-0.06l0.352,-0.118c0.135,-0.011 0.228,0.069 0.279,0.241c0.008,0.107 -0.18,0.242 -0.559,0.403l0.002,0.029c0.161,0.133 0.247,0.244 0.253,0.332l0.007,0.09c-0.043,0.097 -0.195,0.266 -0.454,0.509l-0.067,0.006l-0.002,-0.03l0.048,-0.268c-0.014,-0.186 -0.174,-0.28 -0.479,-0.285l-0.097,0.009c-0.235,0.067 -0.351,0.128 -0.347,0.178c0.388,-0.033 0.595,0.085 0.615,0.36l0.002,0.028c0.015,0.193 -0.191,0.356 -0.619,0.496l-0.101,-0.049l-0.034,0.003c0.015,0.2 -0.158,0.36 -0.52,0.484l-0.2,-0.071l-0.033,0.003c0.031,0.431 -0.264,0.713 -0.888,0.844c-0.393,-0.039 -0.604,-0.2 -0.624,-0.478c-0.021,-0.288 0.122,-0.585 0.426,-0.893l-0.002,-0.03c-0.312,-0.099 -0.479,-0.292 -0.5,-0.577l-0.098,0.008c0.012,0.153 -0.127,0.351 -0.414,0.597l0.003,0.03c0.172,-0.014 0.35,0.167 0.531,0.545c0.025,0.342 -0.099,0.59 -0.373,0.739c-0.166,0.095 -0.316,0.145 -0.446,0.156c-0.2,0.017 -0.4,-0.044 -0.603,-0.183l-0.07,-0.084l-0.007,-0.088l0.109,-0.304c-0.232,0.179 -0.39,0.27 -0.471,0.277c-0.13,0.011 -0.199,-0.054 -0.209,-0.189c-0.013,-0.177 0.067,-0.272 0.239,-0.287l0.13,-0.011l0.013,0.178l0.071,0.052c0.064,-0.006 0.094,-0.049 0.088,-0.126c-0.024,-0.333 -0.269,-0.547 -0.734,-0.646l-0.097,0.009c-0.102,0.008 -0.177,0.062 -0.217,0.164c0.01,0.128 0.113,0.2 0.309,0.211l0.097,-0.009l0.005,0.06l-0.412,0.182l-0.13,0.011c-0.112,-0.039 -0.173,-0.114 -0.181,-0.219l-0.002,-0.03c-0.013,-0.18 0.223,-0.39 0.708,-0.622l-0.002,-0.03c-0.489,-0.273 -0.836,-0.4 -1.041,-0.382c-0.109,0.009 -0.183,0.063 -0.217,0.167l0.013,0.175c0.094,0.11 0.185,0.16 0.271,0.153c-0.09,0.184 -0.203,0.284 -0.336,0.295l-0.066,0.006c-0.136,-0.059 -0.207,-0.151 -0.216,-0.279c0.062,-0.398 0.307,-0.635 0.732,-0.709l0.128,-0.041c0.166,-0.015 0.559,0.118 1.174,0.401l0.064,-0.006c-0.077,-0.174 -0.123,-0.339 -0.134,-0.49l-0.008,-0.117l-0.031,0.002c-0.191,0.176 -0.335,0.266 -0.438,0.274l-0.033,0.003c-0.169,0.015 -0.296,-0.083 -0.382,-0.292c0.022,-0.08 0.124,-0.179 0.306,-0.293l0.32,0.328c0.127,-0.011 0.281,-0.163 0.455,-0.452c0.342,-0.324 0.636,-0.497 0.877,-0.518c0.1,-0.008 0.244,0.05 0.44,0.169l0.064,-0.005c-0.142,-0.139 -0.227,-0.429 -0.259,-0.862l-0.002,-0.03l0.031,-0.033l-0.002,-0.03l-0.033,0.003c0.027,-0.237 0.126,-0.364 0.298,-0.378Z" style="fill:#1c5d3b;fill-rule:nonzero;"/><g transform="matrix(0.927446,-0.0542089,0.050338,0.998764,0.85999,0.789342)"><g transform="matrix(3.32428,0,0,3.32428,0.332741,6.50329)"><path d="M0.421,-0c-0.021,-0 -0.039,-0.007 -0.054,-0.02c-0.016,-0.013 -0.024,-0.031 -0.024,-0.056c0,-0.025 0.013,-0.072 0.038,-0.143c-0.153,-0.033 -0.26,-0.078 -0.319,-0.133c-0.035,-0.032 -0.052,-0.07 -0.052,-0.113c0,-0.029 0.008,-0.055 0.025,-0.08c0.017,-0.025 0.038,-0.044 0.065,-0.057c0.004,0.086 0.035,0.153 0.092,0.202c0.057,0.049 0.131,0.082 0.22,0.101c0.018,-0.043 0.042,-0.104 0.071,-0.181c0.037,-0.099 0.062,-0.173 0.074,-0.222c0.028,-0.009 0.053,-0.014 0.076,-0.014c0.035,0 0.062,0.012 0.081,0.037c0.019,0.024 0.034,0.058 0.045,0.103c0.003,0.013 0.01,0.043 0.021,0.088c0.01,0.045 0.018,0.082 0.025,0.11c0.021,0.087 0.04,0.155 0.057,0.203c0.016,0.048 0.044,0.086 0.081,0.115c-0.008,0.02 -0.021,0.036 -0.039,0.048c-0.019,0.012 -0.039,0.018 -0.06,0.018c-0.049,-0 -0.084,-0.037 -0.107,-0.11c-0.011,-0.034 -0.02,-0.067 -0.029,-0.1c-0.023,0.008 -0.053,0.012 -0.09,0.012c-0.037,0 -0.078,-0.003 -0.125,-0.008c-0.019,0.073 -0.029,0.133 -0.029,0.179c0,0.009 0,0.015 0.001,0.019c-0.009,0.001 -0.023,0.002 -0.044,0.002Zm0.206,-0.605c-0.049,0.131 -0.086,0.237 -0.111,0.32c0.027,0.002 0.055,0.003 0.084,0.003c0.028,0 0.057,-0.003 0.088,-0.009c-0.006,-0.027 -0.026,-0.132 -0.061,-0.314Z" style="fill:#c13748;fill-rule:nonzero;stroke:#853a16;stroke-opacity:0;stroke-width:0.01px;stroke-linecap:butt;stroke-miterlimit:2;"/></g><g transform="matrix(3.32428,0,0,3.32428,0.332741,6.50329)"></g><g transform="matrix(3.32428,0,0,3.32428,18.4035,6.50329)"><path d="M0.531,-0.586c-0.247,0.07 -0.381,0.183 -0.4,0.338c-0.021,-0.008 -0.038,-0.023 -0.051,-0.044c-0.013,-0.021 -0.02,-0.042 -0.02,-0.065c0,-0.045 0.017,-0.087 0.052,-0.127c0.035,-0.039 0.079,-0.073 0.133,-0.101c0.054,-0.027 0.114,-0.051 0.179,-0.071c0.127,-0.04 0.244,-0.06 0.352,-0.06c0.067,0 0.12,0.012 0.161,0.037c0.041,0.025 0.061,0.066 0.061,0.122c0,0.065 -0.03,0.114 -0.091,0.148c0.041,0.01 0.074,0.029 0.101,0.057c0.027,0.029 0.04,0.064 0.04,0.107c0,0.08 -0.03,0.142 -0.089,0.185c-0.059,0.044 -0.133,0.066 -0.22,0.066c-0.087,-0 -0.163,-0.017 -0.227,-0.052c0.021,-0.072 0.031,-0.161 0.031,-0.267c-0,-0.106 -0.004,-0.197 -0.012,-0.273Zm0.138,0.484c0.029,0.009 0.059,0.014 0.088,0.014c0.046,-0 0.084,-0.012 0.114,-0.035c0.03,-0.023 0.045,-0.055 0.045,-0.097c-0,-0.08 -0.043,-0.12 -0.13,-0.12c-0.041,-0 -0.083,0.009 -0.126,0.026c-0,0.067 0.003,0.138 0.009,0.212Zm-0.01,-0.3c0.009,-0.002 0.023,-0.004 0.041,-0.007c0.019,-0.003 0.033,-0.005 0.043,-0.007c0.01,-0.002 0.022,-0.005 0.037,-0.009c0.015,-0.004 0.027,-0.009 0.035,-0.015c0.009,-0.005 0.017,-0.012 0.026,-0.021c0.017,-0.017 0.025,-0.041 0.025,-0.073c-0,-0.062 -0.037,-0.093 -0.111,-0.093c-0.033,-0 -0.062,0.003 -0.088,0.009c-0.005,0.137 -0.008,0.209 -0.008,0.216Z" style="fill:#c13748;fill-rule:nonzero;stroke:#853a16;stroke-opacity:0;stroke-width:0.01px;stroke-linecap:butt;stroke-miterlimit:2;"/></g><g transform="matrix(3.32428,0,0,3.32428,18.4035,6.50329)"></g><g transform="matrix(3.32428,0,0,3.32428,26.4649,6.50329)"></g><text x="3.484px" y="6.503px" style="font-family:'Salsa-Regular', 'Salsa';font-size:3.324px;fill:#c13748;stroke:#853a16;stroke-opacity:0;stroke-width:0.03px;stroke-linecap:butt;stroke-miterlimit:2;"><tspan x="3.484px " y="6.503px ">p</tspan>ple Chip <tspan x="22.024px " y="6.503px ">l</tspan>og</text></g></svg>