<?xml version="1.0" encoding="UTF-8" standalone="no"?><!DOCTYPE svg PUBLIC "-//W3C//DTD SVG 1.1//EN" "http://www.w3.org/Graphics/SVG/1.1/DTD/svg11.dtd"><svg width="100%" height="100%" viewBox="0 0 24 9" version="1.1" xmlns="http://www.w3.org/2000/svg" xmlns:xlink="http://www.w3.org/1999/xlink" xml:space="preserve" xmlns:serif="http://www.serif.com/" style="fill-rule:evenodd;clip-rule:evenodd;stroke-linejoin:round;stroke-miterlimit:2;"><path d="M11.012,3.262l0.002,0.03l0.079,0.171l0.009,0.114l-0.049,0.24l0.033,-0.003c0.124,-0.088 0.251,-0.139 0.38,-0.15l0.097,-0.008l0.138,0.106l0.013,0.174c-0.089,0.108 -0.174,0.163 -0.249,0.169c-0.109,-0.166 -0.182,-0.247 -0.212,-0.245c-0.05,0.004 -0.079,0.055 -0.086,0.153c0.103,0.304 0.255,0.449 0.454,0.432l0.033,-0.003c0.215,-0.018 0.346,-0.167 0.39,-0.444c-0.25,-0.527 -0.593,-0.774 -1.032,-0.736Zm2.171,-0.155l-0.162,0.014c-0.226,0.187 -0.33,0.391 -0.314,0.615c0.019,0.257 0.197,0.447 0.531,0.572c0.211,-0.079 0.31,-0.205 0.297,-0.379c-0.008,-0.107 -0.1,-0.197 -0.281,-0.269l-0.096,0.008l0.002,0.03l0.075,0.109l-0.216,0.166l-0.13,0.011l-0.07,-0.052l-0.002,-0.03c-0.015,-0.199 0.19,-0.364 0.616,-0.493l0.233,0.068l0.03,-0.003c-0.012,-0.164 0.082,-0.357 0.285,-0.58l-0.002,-0.03l-0.033,0.003c-0.262,0.14 -0.517,0.219 -0.763,0.24Zm0.885,0.103l0.004,0.057c0.026,0.115 0.063,0.17 0.11,0.166l0.066,-0.006l-0.048,-0.201c0.236,-0.04 0.35,-0.108 0.343,-0.205l0.246,-0.168l0.066,-0.006l0.112,0.196l0.066,-0.006l-0.002,-0.027c-0.012,-0.157 -0.149,-0.253 -0.413,-0.288c-0.382,0.13 -0.564,0.291 -0.55,0.488Zm2.102,-1.061l7.471,-0.636l0.006,0.087l-0.059,0.065l-7.341,0.625l-0.07,-0.054l-0.007,-0.087Zm-15.103,1.286l7.407,-0.631l0.01,0.147l-7.406,0.63l-0.068,-0.054l-0.002,-0.03l0.059,-0.062Zm10.358,-1.205l0.054,0.288c-0.14,0.09 -0.256,0.139 -0.347,0.147l0.005,0.06l0.48,0.34c0.193,-0.016 0.284,-0.132 0.269,-0.346l-0.003,-0.03l-0.105,-0.079l-0.097,0.008l-0.031,0.033l-0.129,-0.019l-0.006,-0.087c0.169,-0.034 0.252,-0.079 0.248,-0.139l-0.002,-0.03c-0.112,-0.125 -0.225,-0.186 -0.338,-0.176l0.002,0.03Zm-3.034,-0.096l0.007,0.09c0.057,0.171 0.115,0.253 0.182,0.248c0.074,-0.007 0.16,-0.054 0.25,-0.139l0.007,0.087c-0.133,0.189 -0.257,0.287 -0.37,0.297l-0.063,0.005c-0.207,0.018 -0.342,-0.078 -0.413,-0.288l-0.004,-0.059c0.081,-0.143 0.217,-0.225 0.404,-0.241Zm2.36,-0.228l0.026,0.349l0.035,0.027l0.003,0.029l-0.034,0.003c0.086,0.148 0.147,0.223 0.178,0.221c0.044,-0.004 0.063,-0.046 0.057,-0.123c0.179,-0.291 0.373,-0.442 0.583,-0.46l0.395,0.054l-0.006,-0.087c-0.247,-0.333 -0.486,-0.488 -0.717,-0.468c-0.364,0.078 -0.536,0.231 -0.52,0.455Zm1.194,-1.482c0.026,0.356 0.108,0.602 0.249,0.743l0.033,-0.003l0.042,-0.299c-0.018,-0.242 -0.093,-0.393 -0.228,-0.449l-0.096,0.008Zm0.13,-0.422c0.259,-0.022 0.403,0.151 0.43,0.522l0.002,0.028c0.021,0.291 -0.076,0.595 -0.292,0.906l0.002,0.03l0.079,0.199c-0.01,0.093 -0.088,0.208 -0.233,0.34l0.002,0.03c0.095,0.12 0.144,0.224 0.15,0.311l0.034,-0.003c0.274,-0.337 0.564,-0.517 0.87,-0.543c0.264,0.035 0.402,0.141 0.415,0.316c-0.157,0.171 -0.281,0.259 -0.372,0.267l-0.002,-0.03c-0.079,-0.209 -0.195,-0.307 -0.346,-0.294l-0.163,0.014c-0.063,0.015 -0.09,0.095 -0.08,0.242l0.003,0.03l0.387,-0.063l0.039,0.084c-0.078,0.067 -0.151,0.101 -0.22,0.107l-0.163,0.014l0.004,0.059c0.151,0.198 0.312,0.302 0.479,0.311l0.033,-0.003c0.365,-0.32 0.543,-0.588 0.527,-0.807c-0.152,-0.516 -0.42,-0.758 -0.804,-0.726c-0.149,0.013 -0.297,0.076 -0.441,0.186l-0.033,0.003l-0.005,-0.058c0.167,-0.192 0.398,-0.299 0.693,-0.324c0.436,-0.037 0.766,0.15 0.986,0.562c0.297,0.19 0.542,0.277 0.735,0.261l0.097,-0.008c0.055,-0.005 0.101,-0.087 0.145,-0.248c-0.082,-0.131 -0.194,-0.189 -0.34,-0.177l-0.003,-0.029c0.163,-0.17 0.298,-0.259 0.406,-0.268c0.195,0.011 0.298,0.09 0.309,0.237c0.02,0.276 -0.266,0.506 -0.861,0.689l-0.033,0.003l-0.527,-0.103c-0.071,0.194 -0.312,0.468 -0.719,0.826l0.002,0.029l0.063,-0.005c0.412,-0.035 0.829,-0.256 1.254,-0.665c0.27,-0.141 0.723,-0.325 1.359,-0.557l-0.013,-0.174l-0.141,-0.134l-0.004,-0.059l0.35,-0.118c0.135,-0.011 0.227,0.069 0.278,0.239c0.008,0.108 -0.179,0.241 -0.556,0.401l0.002,0.03c0.16,0.132 0.245,0.242 0.252,0.329l0.006,0.09c-0.042,0.096 -0.194,0.265 -0.451,0.507l-0.066,0.005l-0.003,-0.029l0.048,-0.267c-0.014,-0.185 -0.174,-0.279 -0.477,-0.283l-0.096,0.008c-0.234,0.068 -0.349,0.128 -0.345,0.177c0.386,-0.033 0.592,0.085 0.612,0.359l0.002,0.028c0.014,0.191 -0.191,0.354 -0.616,0.493l-0.101,-0.049l-0.033,0.003c0.014,0.199 -0.157,0.359 -0.518,0.482l-0.199,-0.07l-0.033,0.002c0.031,0.429 -0.262,0.709 -0.883,0.84c-0.391,-0.04 -0.6,-0.2 -0.621,-0.476c-0.021,-0.287 0.122,-0.582 0.424,-0.888l-0.002,-0.03c-0.31,-0.099 -0.477,-0.29 -0.498,-0.574l-0.096,0.008c0.011,0.152 -0.128,0.349 -0.412,0.594l0.002,0.03c0.171,-0.015 0.348,0.166 0.528,0.541c0.025,0.341 -0.098,0.587 -0.37,0.736c-0.166,0.094 -0.315,0.145 -0.444,0.156c-0.199,0.016 -0.398,-0.045 -0.6,-0.182l-0.07,-0.085l-0.006,-0.087l0.108,-0.302c-0.231,0.177 -0.388,0.268 -0.468,0.275c-0.13,0.011 -0.198,-0.053 -0.208,-0.188c-0.013,-0.176 0.066,-0.271 0.237,-0.285l0.13,-0.011l0.013,0.176l0.07,0.052c0.063,-0.005 0.094,-0.048 0.088,-0.125c-0.024,-0.331 -0.268,-0.544 -0.73,-0.642l-0.097,0.008c-0.102,0.009 -0.176,0.063 -0.216,0.164c0.01,0.127 0.112,0.198 0.307,0.209l0.097,-0.008l0.004,0.06l-0.409,0.18l-0.129,0.011c-0.111,-0.038 -0.172,-0.113 -0.18,-0.218l-0.002,-0.03c-0.014,-0.179 0.221,-0.387 0.704,-0.618l-0.002,-0.03c-0.487,-0.272 -0.832,-0.398 -1.036,-0.381c-0.108,0.01 -0.181,0.063 -0.216,0.167l0.013,0.174c0.094,0.11 0.184,0.16 0.27,0.152c-0.09,0.183 -0.202,0.283 -0.334,0.294l-0.066,0.006c-0.135,-0.059 -0.206,-0.151 -0.215,-0.277c0.062,-0.397 0.306,-0.633 0.729,-0.706l0.127,-0.041c0.165,-0.014 0.556,0.118 1.168,0.399l0.063,-0.006c-0.076,-0.173 -0.122,-0.337 -0.133,-0.487l-0.008,-0.117l-0.031,0.003c-0.19,0.174 -0.333,0.264 -0.435,0.272l-0.033,0.003c-0.169,0.014 -0.295,-0.083 -0.38,-0.291c0.022,-0.079 0.123,-0.178 0.304,-0.291l0.318,0.326c0.127,-0.011 0.28,-0.162 0.453,-0.449c0.34,-0.323 0.633,-0.495 0.873,-0.516c0.099,-0.008 0.242,0.05 0.437,0.169l0.064,-0.006c-0.141,-0.138 -0.226,-0.427 -0.258,-0.857l-0.002,-0.03l0.031,-0.033l-0.002,-0.03l-0.033,0.003c0.027,-0.235 0.126,-0.362 0.297,-0.376Z" style="fill:#1c5d3b;fill-rule:nonzero;"/><g transform="matrix(0.927446,-0.0542089,0.050338,0.998764,0.777832,0.706452)"><g transform="matrix(3.30689,0,0,3.30689,-1.10973,5.93542)"><path d="M0.421,-0c-0.021,-0 -0.039,-0.007 -0.054,-0.02c-0.016,-0.013 -0.024,-0.031 -0.024,-0.056c0,-0.025 0.013,-0.072 0.038,-0.143c-0.153,-0.033 -0.26,-0.078 -0.319,-0.133c-0.035,-0.032 -0.052,-0.07 -0.052,-0.113c0,-0.029 0.008,-0.055 0.025,-0.08c0.017,-0.025 0.038,-0.044 0.065,-0.057c0.004,0.086 0.035,0.153 0.092,0.202c0.057,0.049 0.131,0.082 0.22,0.101c0.018,-0.043 0.042,-0.104 0.071,-0.181c0.037,-0.099 0.062,-0.173 0.074,-0.222c0.028,-0.009 0.053,-0.014 0.076,-0.014c0.035,0 0.062,0.012 0.081,0.037c0.019,0.024 0.034,0.058 0.045,0.103c0.003,0.013 0.01,0.043 0.021,0.088c0.01,0.045 0.018,0.082 0.025,0.11c0.021,0.087 0.04,0.155 0.057,0.203c0.016,0.048 0.044,0.086 0.081,0.115c-0.008,0.02 -0.021,0.036 -0.039,0.048c-0.019,0.012 -0.039,0.018 -0.06,0.018c-0.049,-0 -0.084,-0.037 -0.107,-0.11c-0.011,-0.034 -0.02,-0.067 -0.029,-0.1c-0.023,0.008 -0.053,0.012 -0.09,0.012c-0.037,0 -0.078,-0.003 -0.125,-0.008c-0.019,0.073 -0.029,0.133 -0.029,0.179c0,0.009 0,0.015 0.001,0.019c-0.009,0.001 -0.023,0.002 -0.044,0.002Zm0.206,-0.605c-0.049,0.131 -0.086,0.237 -0.111,0.32c0.027,0.002 0.055,0.003 0.084,0.003c0.028,0 0.057,-0.003 0.088,-0.009c-0.006,-0.027 -0.026,-0.132 -0.061,-0.314Z" style="fill:#c13748;fill-rule:nonzero;stroke:#853a16;stroke-opacity:0;stroke-width:0.01px;"/></g><g transform="matrix(3.30689,0,0,3.30689,-1.10973,5.93542)"></g><g transform="matrix(3.30689,0,0,3.30689,16.8665,5.93542)"><path d="M0.531,-0.586c-0.247,0.07 -0.381,0.183 -0.4,0.338c-0.021,-0.008 -0.038,-0.023 -0.051,-0.044c-0.013,-0.021 -0.02,-0.042 -0.02,-0.065c0,-0.045 0.017,-0.087 0.052,-0.127c0.035,-0.039 0.079,-0.073 0.133,-0.101c0.054,-0.027 0.114,-0.051 0.179,-0.071c0.127,-0.04 0.244,-0.06 0.352,-0.06c0.067,0 0.12,0.012 0.161,0.037c0.041,0.025 0.061,0.066 0.061,0.122c0,0.065 -0.03,0.114 -0.091,0.148c0.041,0.01 0.074,0.029 0.101,0.057c0.027,0.029 0.04,0.064 0.04,0.107c0,0.08 -0.03,0.142 -0.089,0.185c-0.059,0.044 -0.133,0.066 -0.22,0.066c-0.087,-0 -0.163,-0.017 -0.227,-0.052c0.021,-0.072 0.031,-0.161 0.031,-0.267c-0,-0.106 -0.004,-0.197 -0.012,-0.273Zm0.138,0.484c0.029,0.009 0.059,0.014 0.088,0.014c0.046,-0 0.084,-0.012 0.114,-0.035c0.03,-0.023 0.045,-0.055 0.045,-0.097c-0,-0.08 -0.043,-0.12 -0.13,-0.12c-0.041,-0 -0.083,0.009 -0.126,0.026c-0,0.067 0.003,0.138 0.009,0.212Zm-0.01,-0.3c0.009,-0.002 0.023,-0.004 0.041,-0.007c0.019,-0.003 0.033,-0.005 0.043,-0.007c0.01,-0.002 0.022,-0.005 0.037,-0.009c0.015,-0.004 0.027,-0.009 0.035,-0.015c0.009,-0.005 0.017,-0.012 0.026,-0.021c0.017,-0.017 0.025,-0.041 0.025,-0.073c-0,-0.062 -0.037,-0.093 -0.111,-0.093c-0.033,-0 -0.062,0.003 -0.088,0.009c-0.005,0.137 -0.008,0.209 -0.008,0.216Z" style="fill:#c13748;fill-rule:nonzero;stroke:#853a16;stroke-opacity:0;stroke-width:0.01px;"/></g><g transform="matrix(3.30689,0,0,3.30689,16.8665,5.93542)"></g><g transform="matrix(3.30689,0,0,3.30689,24.8857,5.93542)"></g><text x="2.025px" y="5.935px" style="font-family:'Salsa-Regular', 'Salsa';font-size:3.307px;fill:#c13748;stroke:#853a16;stroke-opacity:0;stroke-width:0.03px;"><tspan x="2.025px " y="5.935px ">p</tspan>ple Chip <tspan x="20.468px " y="5.935px ">l</tspan>og</text></g></svg>